<svg xmlns="http://www.w3.org/2000/svg" class="icon icon-tabler icon-tabler-brand-twitter" width="24" height="24" viewBox="0 0 512 512" stroke-width="2" stroke="currentColor" fill="none" stroke-linecap="round" stroke-linejoin="round">
<path stroke-miterlimit="10" stroke-width="17" d="M196.6,439.6c0.1-14.5,0.1-29,0.2-43.5    c0-12.1,0.1-24.1,0.1-36.2c0-21.4,0.1-42.9,0.1-64.3c0-15.5,0.1-30.9,0.1-46.4c0-15.7-0.1-31.4-0.2-47.1c0-2.5-0.1-5-0.2-7.5    c0-0.6,0-1.3,0-1.9c1.1-0.3,80.5-0.4,82.2-0.1c0,11.3,0,22.6,0,34c0.1,0,0.2,0.1,0.3,0.1c0.3-0.4,0.6-0.8,0.9-1.3    c4.5-6.8,9.6-13.1,15.7-18.6c9.7-8.8,21-14.6,33.8-17.7c9.3-2.2,18.7-2.9,28.2-2.5c9.4,0.4,18.6,1.8,27.6,4.8    c22,7.2,38.1,21.4,48.7,42c5,9.8,8.3,20.2,10.4,30.9c1.1,5.6,1.8,11.2,2.3,16.9c0.1,1.1,0.1,2.3,0.1,3.4c0,0.6,0.2,1.2,0.3,1.7    c0,51.1,0,102.1,0,153.2c-27.3,0-54.7,0-82,0c0-0.5,0-1,0-1.5c0-43.7,0-87.5,0-131.2c0-6.2-0.4-12.4-1.5-18.6    c-1.1-6.1-2.8-11.9-5.7-17.4c-3.8-7.3-9.3-12.9-17-16.2c-4.5-1.9-9.2-2.9-14.1-3.2c-5.1-0.3-10.2,0.1-15.1,1.4    c-9.3,2.5-16.8,7.8-22.7,15.4c-4,5.2-7.2,10.9-8.8,17.3c-1.1,4.7-1.4,9.5-1.4,14.3c0,46,0,92,0,138.1c0,0.5,0,1,0,1.5    C251.4,439.6,224,439.6,196.6,439.6z"/>
<path stroke-miterlimit="10" stroke-width="17" d="M69.1,439.6c0-0.6,0-1.3,0-1.9c0-81,0-162,0-243    c0-0.7,0-1.4,0-2.1c27.5,0,54.8,0,82.2,0c0,0.8,0,1.5,0,2.1c0,41.9,0,83.8,0,125.6c0,39.1,0,78.3,0,117.4c0,0.6,0.1,1.3,0.1,1.9    C124,439.6,96.5,439.6,69.1,439.6z"/>
<path stroke-miterlimit="10" stroke-width="17" d="M115.5,73.4c1.4,0.2,2.7,0.4,4.1,0.6    c8.1,1.2,15.5,4.1,21.8,9.3c7.3,5.9,11.8,13.5,14,22.6c2.2,9.4,1.7,18.6-2.2,27.5c-4.9,11.2-13.5,18.5-24.9,22.6    c-5.6,2-11.4,2.8-17.3,2.9c-8.2,0.1-16.1-1.2-23.5-4.9c-12.5-6.2-20-16.3-22.6-30c-0.3-1.3-0.6-2.6-0.9-3.9c0-2.7,0-5.4,0-8.1    c0.3-1.4,0.6-2.7,0.9-4.1c1.9-10,6.7-18.3,14.7-24.7c6.6-5.2,14.1-8.1,22.3-9.3c1.3-0.2,2.6-0.4,3.9-0.6    C109.1,73.4,112.3,73.4,115.5,73.4z"/>

</svg>